# xmcd
#
# Track frame offsets:
#	150
#	26305
#	52290
#	81292
#	105842
#	131135
#	155577
#	196955
#	235882
#	259142
#	290297
#
# Disc length: 4202 seconds
# Revision: 0
# Processed by: cddbd v1.5.2PL0 Copyright (c) Steve Scherf et al.
# Submitted via: dBpowerAMP V12.0
#
DISCID=9410680b
DTITLE=Various Artist - Super Black Blues
DYEAR=1995
DGENRE=Blues
TTITLE0=Vernon Garrett - Walkin' The Back Streets and Crying
TTITLE1=Artie White - Nothing But The Blues
TTITLE2=Gary B.B. Coleman - I'll Take Care Of You
TTITLE3=Buster Benton - Sweet Sixteen
TTITLE4=Chick Willis - You're Gonna Miss Me
TTITLE5=Legendary Blues Band - Blues Today
TTITLE6=Gary B.B. Coleman - The Sky Is Crying
TTITLE7=Jerry McCain - Dr Love
TTITLE8=Artie White - Thinking About Making A Change
TTITLE9=Sonny Rhodes - Cigarette Blues
TTITLE10=Luther Johnson - Cryin' And Thinkin'
EXTD=
EXTT0=
EXTT1=
EXTT2=
EXTT3=
EXTT4=
EXTT5=
EXTT6=
EXTT7=
EXTT8=
EXTT9=
EXTT10=
PLAYORDER=
